HIERARCHY
ROOT Hips
{
	OFFSET 0.000000 0.000000 0.000000
	CHANNELS 6 Xposition Yposition Zposition Zrotation Yrotation Xrotation 
	JOINT LHipJoint
	{
		OFFSET 0.000000 0.000000 0.000000
		CHANNELS 3 Zrotation Yrotation Xrotation
		JOINT LeftUpLeg
		{
			OFFSET 1.363060 -1.794630 0.839290
			CHANNELS 3 Zrotation Yrotation Xrotation
			JOINT LeftLeg
			{
				OFFSET 2.448110 -6.726130 0.000000
				CHANNELS 3 Zrotation Yrotation Xrotation
				JOINT LeftFoot
				{
					OFFSET 2.562200 -7.039590 0.000000
					CHANNELS 3 Zrotation Yrotation Xrotation
					JOINT LeftToeBase
					{
						OFFSET 0.157640 -0.433110 2.322550
						CHANNELS 3 Zrotation Yrotation Xrotation
						End Site
						{
							OFFSET 0.000000 0.000000 0.000000
						}
					}
				}
			}
		}
	}
	JOINT RHipJoint
	{
		OFFSET 0.000000 0.000000 0.000000
		CHANNELS 3 Zrotation Yrotation Xrotation
		JOINT RightUpLeg
		{
			OFFSET -1.305520 -1.794630 0.839290
			CHANNELS 3 Zrotation Yrotation Xrotation
			JOINT RightLeg
			{
				OFFSET -2.542530 -6.985550 0.000000
				CHANNELS 3 Zrotation Yrotation Xrotation
				JOINT RightFoot
				{
					OFFSET -2.568260 -7.056230 0.000000
					CHANNELS 3 Zrotation Yrotation Xrotation
					JOINT RightToeBase
					{
						OFFSET -0.164730 -0.452590 2.363150
						CHANNELS 3 Zrotation Yrotation Xrotation
						End Site
						{
							OFFSET 0.000000 0.000000 0.000000
						}
					}
				}
			}
		}
	}
}
MOTION
Frames: 33
Frame Time: 0.008333
6.290640 18.008243 2.321428 173.297162 -88.331556 -130.238092 -11.203843 0.128482 1.261906 -7.638020 5.783612 -48.929876 -0.525396 1.406696 36.165088 2.042405 10.481694 29.053782 5.938300 0.000000 -71.310600 10.386488 -0.757618 -0.389852 11.061796 -12.219657 -52.868193 1.644774 -3.707300 40.413210 -0.202153 3.747797 30.316477 2.317100 0.000001 -85.264200
6.142852 18.172303 2.306103 178.141561 -88.123160 -134.733848 -11.195369 0.015363 1.321570 -7.578544 5.672637 -50.017217 -0.517918 1.447075 36.360895 2.050157 10.105531 30.604266 5.894400 -0.000000 -68.838600 10.292300 -0.651727 -0.250588 11.176848 -11.736175 -54.299161 1.625561 -3.782025 40.818151 -0.192713 3.789625 30.929479 2.369000 -0.000000 -84.093899
5.999889 18.321567 2.290598 -179.163672 -87.982454 -136.862538 -11.144980 -0.102265 1.410910 -7.583121 5.331591 -51.511145 -0.517362 1.515444 36.759443 2.030937 9.746235 31.287789 5.767300 0.000001 -66.777000 10.211273 -0.538767 -0.044792 11.230780 -11.021886 -56.110730 1.612217 -3.892256 41.356627 -0.156813 3.617312 30.559525 2.215601 0.000000 -83.259400
5.862010 18.456445 2.275040 -178.233003 -87.922549 -137.035502 -11.061722 -0.225048 1.522907 -7.637284 4.768422 -53.362249 -0.518370 1.610873 37.323442 1.988958 9.442155 31.176232 5.601600 -0.000000 -65.215500 10.139796 -0.420292 0.216012 11.192136 -10.123995 -58.244090 1.608772 -4.032734 41.972252 -0.102403 3.261382 29.326230 1.891500 -0.000000 -82.689400
5.729495 18.577652 2.259560 -178.849956 -87.945454 -135.502278 -10.950369 -0.352280 1.650562 -7.721742 4.002549 -55.515899 -0.519654 1.730013 38.011704 1.931592 9.218938 30.370109 5.430700 -0.000000 -64.119399 10.075542 -0.294184 0.519408 11.036984 -9.095092 -60.637489 1.620384 -4.194531 42.609285 -0.042182 2.761358 27.386414 1.447000 -0.000000 -82.261100
5.602124 18.685935 2.244297 179.018645 -88.043571 -132.326241 -10.812310 -0.481945 1.787833 -7.817891 3.063205 -57.917275 -0.522831 1.866977 38.778902 1.868242 9.090209 28.999507 5.276600 0.000000 -63.398400 10.018061 -0.157738 0.854022 10.752075 -7.989498 -63.233933 1.651165 -4.367384 43.220572 0.008072 2.157580 24.926463 0.938400 0.000001 -81.760300
5.479563 18.782162 2.229307 175.270794 -88.200764 -127.436481 -10.647182 -0.610375 1.929339 -7.911121 1.988542 -60.516698 -0.531198 2.015271 39.580856 1.809072 9.057788 27.216682 5.149500 0.000000 -62.905400 9.967590 -0.008360 1.209602 10.338314 -6.857980 -65.984894 1.701775 -4.541122 43.768193 0.031404 1.478575 22.157451 0.414600 0.000000 -81.070500
5.361200 18.867134 2.214708 169.747049 -88.391515 -120.699835 -10.456053 -0.731616 2.071406 -7.990086 0.820649 -63.270193 -0.548018 2.168580 40.372400 1.764815 9.121264 25.198331 5.057500 -0.000000 -62.612400 9.923625 0.155946 1.576789 9.810860 -5.742238 -68.849950 1.768473 -4.706407 44.222126 0.013001 0.737358 19.301849 -0.090400 0.000000 -80.283600
5.246186 18.941410 2.200190 162.251202 -88.581573 -111.942210 -10.241024 -0.835095 2.211046 -8.062027 -0.393776 -66.145833 -0.577234 2.323811 41.118849 1.741595 9.263488 23.102413 4.996600 -0.000000 -62.237000 9.887827 0.335757 1.950574 9.188402 -4.673060 -71.807526 1.843903 -4.858967 44.582582 -0.052996 -0.044032 16.531623 -0.549901 0.000000 -79.129000
5.133774 19.005562 2.185854 152.990439 -88.733958 -101.391209 -10.014969 -0.913170 2.346592 -8.130180 -1.616051 -69.107424 -0.619954 2.478493 41.779736 1.745228 9.480110 21.100076 4.974200 -0.000000 -61.899200 9.852641 0.528822 2.322767 8.499887 -3.670386 -74.829242 1.920932 -4.994033 44.836706 -0.166601 -0.859556 14.014996 -0.958501 -0.000000 -77.933100
5.023074 19.059831 2.171498 142.681173 -88.816532 -89.779807 -9.795080 -0.962603 2.476343 -8.212483 -2.816081 -72.120716 -0.676734 2.631501 42.321981 1.774962 9.755706 19.322367 4.992800 -0.000001 -61.575600 9.809773 0.725522 2.688528 7.769287 -2.749164 -77.895741 1.995461 -5.111757 44.985778 -0.317869 -1.684651 11.852505 -1.315200 -0.000000 -76.756000
4.913038 19.104320 2.156587 132.652250 -88.810533 -78.450865 -9.595524 -0.985229 2.597220 -8.338904 -3.976324 -75.145880 -0.749197 2.781795 42.718401 1.823456 10.063859 17.853225 5.051000 0.000000 -61.153500 9.756469 0.910197 3.046850 7.013276 -1.921292 -80.990725 2.067403 -5.215526 45.032948 -0.489926 -2.478831 10.087513 -1.621599 -0.000000 -75.568800
4.802924 19.139043 2.141169 124.119374 -88.722142 -68.636333 -9.425235 -0.988661 2.705513 -8.524537 -5.092000 -78.132891 -0.838444 2.926176 42.937516 1.881702 10.384830 16.758602 5.153000 0.000000 -60.802000 9.694373 1.065838 3.393176 6.257767 -1.197626 -84.081588 2.141771 -5.308102 44.961627 -0.662963 -3.198837 8.742946 -1.882800 -0.000000 -74.593600
4.691268 19.163940 2.124911 117.743486 -88.566239 -61.014789 -9.284119 -0.970697 2.802853 -8.791159 -6.161055 -81.028355 -0.950172 3.062289 42.947916 1.936645 10.685763 16.052100 5.293700 -0.000000 -60.537600 9.636040 1.180768 3.730813 5.525407 -0.580694 -87.131043 2.226111 -5.391006 44.752753 -0.813067 -3.782917 7.797502 -2.096301 -0.000000 -73.874200
4.567771 19.166138 2.126233 88.385099 -88.480684 -30.125634 -9.200955 -0.888191 3.231163 -8.429979 -7.831026 -84.435017 -0.976704 3.120366 42.724274 2.004476 11.024852 15.974766 5.561200 -0.000000 -60.407900 9.592100 1.203525 4.042494 5.397603 -0.353926 -90.476925 2.455693 -5.554141 44.418722 -0.904956 -4.161649 7.088804 -2.260800 0.000000 -73.401001
4.453266 19.170477 2.107701 88.777967 -88.197066 -29.388284 -9.112520 -0.846068 3.276817 -8.892286 -8.809779 -86.984962 -1.151681 3.232428 42.260149 2.015906 11.189386 15.956724 5.742000 0.000000 -60.348200 9.570721 1.229644 4.339654 4.741226 0.056355 -93.322532 2.585286 -5.626031 43.912076 -0.942813 -4.282372 6.784378 -2.340900 -0.000000 -73.295000
4.335743 19.164072 2.087483 90.278119 -87.909911 -29.836175 -9.046498 -0.774291 3.302939 -9.466909 -9.741520 -89.306567 -1.370779 3.336144 41.554112 1.990478 11.227821 16.177934 5.901499 0.000000 -60.360500 9.574668 1.229711 4.611468 4.152810 0.384927 -95.996707 2.747733 -5.684250 43.233352 -0.893070 -4.080970 6.705332 -2.324800 0.000000 -73.499501
4.215667 19.147586 2.066414 92.078448 -87.627420 -30.683284 -9.001774 -0.678400 3.310001 -10.127284 -10.631651 -91.356498 -1.633018 3.424351 40.600690 1.924622 11.125075 16.579187 6.019500 0.000000 -60.508100 9.600614 1.214302 4.841593 3.661198 0.632128 -98.437588 2.952578 -5.726959 42.370286 -0.743467 -3.518791 6.791844 -2.190300 0.000001 -74.035000
4.092659 19.120685 2.043746 94.311896 -87.353951 -32.075209 -8.975558 -0.561030 3.298843 -10.874079 -11.467014 -93.114944 -1.941484 3.495657 39.419590 1.814493 10.857838 17.078817 6.066600 -0.000000 -60.800400 9.646043 1.193192 5.031075 3.259200 0.818818 -100.618269 3.199152 -5.751062 41.341614 -0.491555 -2.582526 6.971806 -1.920700 -0.000000 -74.838300
3.966600 19.083295 2.019594 96.716688 -87.095351 -33.757292 -8.963010 -0.429014 3.272500 -11.683297 -12.241273 -94.578633 -2.293491 3.545694 38.038812 1.660129 10.413062 17.600654 6.018699 0.000000 -61.049300 9.705454 1.176327 5.175627 2.953085 0.955832 -102.517233 3.486672 -5.755188 40.170744 -0.143854 -1.286606 7.188054 -1.511000 0.000000 -75.785500
3.837341 19.035585 1.994333 99.073618 -86.862781 -35.511201 -8.958794 -0.292883 3.236952 -12.512456 -12.944733 -95.761204 -2.680650 3.567533 36.483908 1.468235 9.810817 18.117442 5.876501 -0.000000 -61.409900 9.770791 1.170196 5.273876 2.748393 1.059519 -104.126511 3.809985 -5.737859 38.888755 0.281227 0.313638 7.407575 -0.975300 -0.000000 -76.842200
3.704807 18.977512 1.968019 101.361756 -86.664040 -37.313457 -8.957181 -0.161248 3.196537 -13.328221 -13.564791 -96.694444 -3.094384 3.558497 34.798042 1.245777 9.068918 18.596552 5.641401 0.000000 -61.786800 9.834585 1.179164 5.328606 2.639948 1.147363 -105.459726 4.157695 -5.699067 37.543925 0.757045 2.135402 7.610930 -0.342101 -0.000000 -77.897500
3.568863 18.909293 1.940981 103.549610 -86.510405 -39.124453 -8.953677 -0.043479 3.157204 -14.086337 -14.088027 -97.420256 -3.521610 3.515650 33.020194 1.003661 8.227384 19.046032 5.333299 -0.000000 -62.175200 9.889806 1.203259 5.345091 2.624440 1.238966 -106.541087 4.515914 -5.640640 36.184872 1.251124 4.069160 7.806950 0.347800 0.000000 -78.886700
3.429536 18.830787 1.913547 105.681216 -86.411750 -40.978147 -8.944951 0.052716 3.122176 -14.749348 -14.500904 -97.985625 -3.947869 3.439165 31.192345 0.753441 7.331853 19.491385 4.977400 -0.000000 -62.546200 9.931948 1.240053 5.329551 2.694070 1.353527 -107.403205 4.867675 -5.566705 34.862072 1.730549 5.994739 8.025691 1.050800 0.000000 -79.771600
3.287279 18.742752 1.886180 107.819014 -86.376728 -42.931566 -8.929607 0.119412 3.092817 -15.280171 -14.789183 -98.428418 -4.355645 3.329445 29.344177 0.508767 6.443834 19.996055 4.610400 -0.000001 -63.087100 9.958568 1.284724 5.286945 2.842499 1.507208 -108.072130 5.195735 -5.482378 33.614043 2.166014 7.792034 8.320265 1.728200 0.000000 -80.622600
3.142307 18.645050 1.859146 110.100997 -86.408535 -45.119038 -8.907308 0.153641 3.068080 -15.664615 -14.940235 -98.782572 -4.730711 3.193065 27.516858 0.278386 5.599486 20.601611 4.251800 0.000000 -63.635599 9.971684 1.331565 5.224343 3.060430 1.711495 -108.576306 5.484340 -5.395252 32.475432 2.537071 9.363685 8.749649 2.354600 0.000000 -81.427600
2.994543 18.537911 1.832864 112.667468 -86.508004 -47.673228 -8.879802 0.153553 3.047036 -15.894843 -14.946104 -99.073874 -5.059755 3.037787 25.744412 0.070087 4.833034 21.360629 3.920100 0.000000 -64.270600 9.975155 1.373403 5.148573 3.341429 1.973695 -108.936947 5.722264 -5.312207 31.462834 2.831667 10.636634 9.379985 2.916400 0.000000 -82.269100
2.844058 18.421229 1.807769 115.668256 -86.669848 -50.744715 -8.849100 0.117990 3.027968 -15.971440 -14.804366 -99.308420 -5.331319 2.870651 24.048793 -0.109807 4.172155 22.327841 3.629800 0.000000 -65.095800 9.972614 1.404456 5.063450 3.681830 2.291147 -109.163032 5.902407 -5.238886 30.580165 3.045676 11.570908 10.277624 3.411700 0.000001 -83.212300
2.690733 18.294623 1.784130 119.282787 -86.881884 -54.516594 -8.816843 0.047796 3.006486 -15.912131 -14.516148 -99.477975 -5.538461 2.701219 22.462429 -0.258953 3.618483 23.518372 3.379400 -0.000000 -66.149700 9.966634 1.420561 4.970834 4.078940 2.651198 -109.251807 6.022046 -5.178898 29.823889 3.181166 12.162218 11.492991 3.845500 0.000000 -84.274600
2.534546 18.157650 1.762227 123.667698 -87.127274 -59.156580 -8.784717 -0.054659 2.975690 -15.751117 -14.088908 -99.567767 -5.679314 2.543022 21.040963 -0.380328 3.137696 24.885018 3.145400 0.000000 -67.146900 9.956259 1.418228 4.870195 4.533108 3.032468 -109.190450 6.082857 -5.133820 29.188154 3.244712 12.440371 13.052128 4.226100 0.000000 -85.383200
2.386083 18.022397 1.724245 139.364714 -87.202498 -75.524626 -8.545604 -0.142345 2.582456 -16.251324 -12.914575 -99.122523 -5.842852 2.487522 20.067639 -0.509903 2.463006 26.064957 2.744700 -0.000000 -68.346799 10.045632 1.514663 4.776076 4.619654 3.681928 -108.541432 5.943635 -5.016977 28.532173 3.214420 12.425337 15.106489 4.588500 0.000000 -86.511900
2.223882 17.862178 1.706088 145.114024 -87.381354 -81.750569 -8.524515 -0.313230 2.522010 -15.987155 -12.295464 -98.983261 -5.855931 2.377547 19.102947 -0.580739 2.052824 27.572798 2.494401 0.000000 -69.312500 10.009625 1.460933 4.653787 5.164115 3.988989 -108.149840 5.904396 -4.999536 28.127840 3.163834 12.274059 17.287485 4.892200 -0.000000 -87.490499
2.058774 17.688942 1.689676 151.132779 -87.526194 -88.370223 -8.517636 -0.494809 2.448142 -15.707744 -11.622121 -98.721687 -5.812141 2.307951 18.459670 -0.632123 1.630865 28.931299 2.209000 0.000000 -69.964300 9.945164 1.397030 4.511784 5.739877 4.215667 -107.578888 5.829503 -4.994768 27.862654 3.078395 12.039735 19.638738 5.174100 0.000000 -88.251000
